<?xml version="1.0" encoding="iso-8859-1"?>
<!-- Uploaded to: SVG Repo, www.svgrepo.com, Generator: SVG Repo Mixer Tools -->
<svg version="1.1" id="Capa_1" xmlns="http://www.w3.org/2000/svg" xmlns:xlink="http://www.w3.org/1999/xlink" 
	 viewBox="0 0 367.93 367.93" xml:space="preserve">
<g>
	<polygon style="fill:#FFFFFF;" points="156.755,103.196 156.755,99.189 126.558,99.189 126.558,106.29 136.048,106.29 
		136.048,103.196 	"/>
	<path style="fill:#FFFFFF;" d="M128.634,342.915V121.29h-10.666v221.625c0,5.522,4.492,10.015,10.014,10.015h10.666
		C133.126,352.93,128.634,348.438,128.634,342.915z"/>
	<path style="fill:#FFA6BB;" d="M165.347,342.915V121.29h-36.713v221.625c0,5.522,4.492,10.015,10.014,10.015h16.684
		C160.854,352.93,165.347,348.438,165.347,342.915z"/>
	<path style="fill:none;" d="M117.968,121.29v221.625c0,5.522,4.492,10.015,10.014,10.015h10.666h16.684
		c5.522,0,10.016-4.493,10.016-10.015V121.29h-36.713H117.968z"/>
	<rect x="136.048" y="103.196" style="fill:#FFA6BB;" width="20.707" height="3.094"/>
	<path style="fill:#7F3960;" d="M172.847,106.29h-1.092V91.689c0-4.142-3.357-7.5-7.5-7.5h-45.197c-4.143,0-7.5,3.358-7.5,7.5
		v14.601h-1.09c-4.143,0-7.5,3.358-7.5,7.5v229.125c0,13.793,11.221,25.015,25.014,25.015h27.35
		c13.794,0,25.016-11.222,25.016-25.015V113.79C180.347,109.648,176.989,106.29,172.847,106.29z M126.558,99.189h30.197v4.007v3.094
		h-20.707h-9.49V99.189z M165.347,342.915c0,5.522-4.493,10.015-10.016,10.015h-16.684h-10.666c-5.521,0-10.014-4.493-10.014-10.015
		V121.29h10.666h36.713V342.915z"/>
	<g>
		<polygon style="fill:#FFFFFF;" points="241.473,223.236 241.473,218.229 224.746,218.229 224.746,228.133 232.405,228.133 
			232.405,223.236 		"/>
		<path style="fill:#FFFFFF;" d="M226.88,342.915v-99.783h-10.623v99.783c0,5.522,4.493,10.015,10.016,10.015h10.623
			C231.373,352.93,226.88,348.438,226.88,342.915z"/>
		<path style="fill:#FFA6BB;" d="M249.962,342.915v-99.783H226.88v99.783c0,5.522,4.493,10.015,10.016,10.015h3.051
			C245.469,352.93,249.962,348.438,249.962,342.915z"/>
		<g>
			<polygon style="fill:none;" points="232.405,223.236 241.473,223.236 241.473,218.229 224.746,218.229 224.746,228.133 
				232.405,228.133 			"/>
			<path style="fill:none;" d="M227.869,243.133h-0.989h-9.634h-0.989v99.783c0,5.522,4.493,10.015,10.016,10.015h10.623h3.051
				c5.522,0,10.016-4.493,10.016-10.015v-99.783h-0.989H227.869z"/>
			<rect x="232.405" y="223.236" style="fill:#FFA6BB;" width="9.068" height="4.897"/>
			<path style="fill:#7F3960;" d="M257.462,228.133h-0.989v-17.404c0-4.142-3.357-7.5-7.5-7.5h-8.363V126.22h0.427
				c4.143,0,7.5-3.358,7.5-7.5s-3.357-7.5-7.5-7.5h-0.427v-2.077h1.75c4.143,0,7.5-3.358,7.5-7.5c0-4.142-3.357-7.5-7.5-7.5h-1.75
				v-2.077h4.761c4.143,0,7.5-3.358,7.5-7.5c0-4.142-3.357-7.5-7.5-7.5h-4.761v-2.077h8.254c4.143,0,7.5-3.358,7.5-7.5
				s-3.357-7.5-7.5-7.5h-8.254v-2.077h4.761c4.143,0,7.5-3.358,7.5-7.5s-3.357-7.5-7.5-7.5h-4.761v-2.077h1.75
				c4.143,0,7.5-3.358,7.5-7.5s-3.357-7.5-7.5-7.5h-1.75v-2.077h0.427c4.143,0,7.5-3.358,7.5-7.5s-3.357-7.5-7.5-7.5h-0.427V7.5
				c0-4.142-3.357-7.5-7.5-7.5c-4.142,0-7.5,3.358-7.5,7.5v1.257h-0.427c-4.143,0-7.5,3.358-7.5,7.5s3.357,7.5,7.5,7.5h0.427v2.077
				h-1.75c-4.142,0-7.5,3.358-7.5,7.5s3.358,7.5,7.5,7.5h1.75v2.077h-4.761c-4.143,0-7.5,3.358-7.5,7.5s3.357,7.5,7.5,7.5h4.761
				v2.077h-8.254c-4.143,0-7.5,3.358-7.5,7.5s3.357,7.5,7.5,7.5h8.254v2.077h-4.761c-4.143,0-7.5,3.358-7.5,7.5
				c0,4.142,3.357,7.5,7.5,7.5h4.761v2.077h-1.75c-4.142,0-7.5,3.358-7.5,7.5c0,4.142,3.358,7.5,7.5,7.5h1.75v2.077h-0.427
				c-4.143,0-7.5,3.358-7.5,7.5s3.357,7.5,7.5,7.5h0.427v77.009h-8.363c-4.143,0-7.5,3.358-7.5,7.5v17.404h-0.989
				c-4.143,0-7.5,3.358-7.5,7.5v107.283c0,13.793,11.222,25.015,25.016,25.015h13.674c13.794,0,25.016-11.222,25.016-25.015V235.633
				C264.962,231.491,261.605,228.133,257.462,228.133z M224.746,218.229h16.727v5.007v4.896h-9.068h-7.658V218.229z
				 M249.962,342.915c0,5.522-4.493,10.015-10.016,10.015h-3.051h-10.623c-5.522,0-10.016-4.493-10.016-10.015v-99.783h0.989h9.634
				h0.989h21.104h0.989V342.915z"/>
		</g>
	</g>
</g>
</svg>